<svg xmlns="http://www.w3.org/2000/svg" xmlns:xlink="http://www.w3.org/1999/xlink" width="44" height="44" viewBox="0 0 44 44">
  <defs>
    <clipPath id="clip-path">
      <circle id="Ellipse_1" data-name="Ellipse 1" cx="22" cy="22" r="22" transform="translate(458 32)" fill="#fff" stroke="#707070" stroke-width="1"/>
    </clipPath>
  </defs>
  <g id="Mask_Group_1" data-name="Mask Group 1" transform="translate(-458 -32)" clip-path="url(#clip-path)">
    <g id="avatar" transform="translate(453.926 27.926)">
      <circle id="Ellipse_2" data-name="Ellipse 2" cx="22" cy="22" r="22" transform="translate(4.074 4.074)" fill="#be1e2d"/>
      <path id="Path_1" data-name="Path 1" d="M39.722,43.315a21.951,21.951,0,0,1-27.3,0l.611-2.167a7.431,7.431,0,0,1,7.162-5.3h11.75a7.431,7.431,0,0,1,7.162,5.3Z" fill="#f7941e"/>
      <path id="Path_2" data-name="Path 2" d="M26.074,12.393c9.33,0,8.531,8.792,8.531,8.792,1.369-.139,2.444.4,2.444,2.33s-.815,2.33-1.915,2.444a.236.236,0,0,0-.22.22c-.318,3.007-2.444,5.207-4.547,6.681a7.464,7.464,0,0,1-8.6,0c-2.094-1.475-4.229-3.683-4.547-6.681a.236.236,0,0,0-.22-.22c-1.067-.106-1.915-.513-1.915-2.444s1.035-2.444,2.4-2.33C17.494,21.185,16.736,12.393,26.074,12.393Z" fill="#ffd2b4"/>
      <path id="Path_3" data-name="Path 3" d="M29.333,31.778v4.693a1.63,1.63,0,0,1-.9,1.467h0a5.264,5.264,0,0,1-4.71,0h0a1.63,1.63,0,0,1-.9-1.467V31.778Z" fill="#ffd2b4"/>
      <path id="Path_4" data-name="Path 4" d="M29.333,35.852v.619a1.63,1.63,0,0,1-.9,1.467,5.28,5.28,0,0,1-4.71,0,1.63,1.63,0,0,1-.9-1.467v-.619h-1.63v.619a3.259,3.259,0,0,0,1.809,2.917,6.836,6.836,0,0,0,6.16,0,3.259,3.259,0,0,0,1.809-2.917v-.619Z" fill="#fff" opacity="0.2"/>
      <path id="Path_5" data-name="Path 5" d="M29.333,33.472v1.222a7.464,7.464,0,0,1-6.518,0V33.472a7.464,7.464,0,0,0,6.518,0Z" fill="#262234" opacity="0.1"/>
      <circle id="Ellipse_3" data-name="Ellipse 3" cx="1.385" cy="1.385" r="1.385" transform="translate(21.462 21.552)" fill="#262234"/>
      <circle id="Ellipse_4" data-name="Ellipse 4" cx="1.385" cy="1.385" r="1.385" transform="translate(27.915 21.552)" fill="#262234"/>
      <path id="Path_6" data-name="Path 6" d="M29.227,26.506a.815.815,0,0,1,.815,1.019,4.074,4.074,0,0,1-7.887,0,.815.815,0,0,1,.815-1.019Z" fill="#611c24"/>
      <path id="Path_7" data-name="Path 7" d="M28.046,30.075a4.074,4.074,0,0,1-3.944,0c.163-1,.986-1.279,1.972-1.279S27.883,29.072,28.046,30.075Z" fill="#be1e2d"/>
      <path id="Path_8" data-name="Path 8" d="M28.412,26.506v.774a.3.3,0,0,1-.293.3H24.045a.3.3,0,0,1-.293-.3v-.774Z" fill="#fff"/>
      <path id="Path_9" data-name="Path 9" d="M32.1,17.062h0c1.491,2.664,1.124,5.7,1.2,6.176s1.63.546,1.784,0a7.79,7.79,0,0,0,.212-1.727c0-4.889-2.021-10.364-9.216-10.364s-9.216,5.418-9.216,10.316a7.79,7.79,0,0,0,.253,1.736c.147.587,1.687.562,1.784,0s-.293-3.512,1.2-6.176h0a18.1,18.1,0,0,0,12,.041Z" fill="#262234"/>
    </g>
  </g>
</svg>
