<?xml version="1.0" encoding="utf-8"?>
<!-- Generator: Adobe Illustrator 25.2.0, SVG Export Plug-In . SVG Version: 6.00 Build 0)  -->
<svg version="1.1" id="Layer_1" xmlns="http://www.w3.org/2000/svg" xmlns:xlink="http://www.w3.org/1999/xlink" x="0px" y="0px"
	 viewBox="0 0 352.7 526.4" style="enable-background:new 0 0 352.7 526.4;" xml:space="preserve">
<path d="M139.9,0c-6.2,0-11.2,5-11.2,11.2v67.2c0,6.2,5,11.2,11.2,11.2c6.2,0,11.2-5,11.2-11.2V11.2C151.1,5,146.1,0,139.9,0z
	 M269.4,72.8c-2-0.1-4.1,0.5-6.3,1.6L204.9,108c-5.4,3.1-7.1,9.9-4,15.2c3.1,5.4,9.9,7.1,15.2,4l58.3-33.6c5.4-3.1,7.1-9.9,4-15.2
	C275.8,74.6,272.8,72.9,269.4,72.8L269.4,72.8z M9.9,73c-3.5,0.4-6.3,2.4-8.4,5.4c-3.1,5.4-1.3,12.1,4,15.2l58.3,33.6
	c5.4,3.1,12.1,1.3,15.2-4c3.1-5.4,1.3-12.1-4-15.2L16.7,74.4C14.3,73.1,12,72.8,9.9,73L9.9,73z M139.9,112
	c-24.6,0-44.8,20.2-44.8,44.8v143c-6.9-15-19.4-31.2-35-35.2c-21.2-5.8-47.3,11.2-53.2,31c-3,11-1.1,23.5,4.9,38.9
	c29.1,70,64.9,137.1,108.5,188.1c2.1,2.4,5.2,3.8,8.4,3.9h151.2c2.4,0,4.8-0.8,6.6-2.3c16.1-11.9,29.1-32.3,39.9-56.5
	s19-52.4,23.3-79.8c4.2-27.4,4.2-53.1-1.8-75.9c-5.8-22-21.3-40.3-44.4-43.1c-5.5,0-11.2,0.5-16.1,1.6c-2.9-6.9-6.9-12.7-11.9-16.3
	c-8.4-5.9-16.9-7.8-23.8-7.7c-6.6,0.1-12.7,2.5-18,6.3c-2.4-3.7-4.9-7.5-8.1-9.8c-8.3-6-17.1-7.7-24.1-7.7c-5.8,0-11.4,1.6-16.8,3.9
	v-82.2C184.3,126.8,160.6,112,139.9,112L139.9,112z M139.9,134.4c12.6,0,22.4,9.8,22.4,22.4v106.4c-0.1,5.1,3.8,9.9,8.8,11
	c4.9,1.1,10.5-1.5,12.6-6.1c2.5-5.1,11.8-10.5,17.9-10.5c2.7,0,7.8,1.1,11,3.5c3.3,2.4,5.8,5.1,5.8,13.3c0,5,3.7,9.7,8.6,10.9
	c4.8,1.2,10.3-1.3,12.6-5.8c4.6-9.1,7-10.6,12.6-10.7c1.6-0.1,7,1,10.5,3.5s6.1,5.4,6.1,13.3c-0.1,4.4,2.7,8.6,6.6,10.3
	c4,1.7,9.1,0.9,12.2-2.1c4.2-2.1,8.4-2.7,13.8-2.6c13.4,1.7,20.3,10.1,25,26.8c4.8,16.9,5,41,1.1,66.3c-3.9,25.4-11.6,52-21.5,74.2
	c-9.3,20.8-20.6,37.1-30.6,45.5H134.2C94.8,457.6,57.3,386.4,32.8,326.4c-5.1-13.1-5.6-20.6-4.4-24.8c4.1-10.8,15.8-16.9,25.7-15.4
	c11.9,4.5,14.9,12.4,19.9,21.5l22.2,44.6c2.3,4.4,7.8,6.9,12.6,5.8c4.8-1.2,8.6-5.9,8.6-10.9V156.8
	C117.5,144.2,127.3,134.4,139.9,134.4L139.9,134.4z"/>
</svg>
