<svg xmlns="http://www.w3.org/2000/svg" xmlns:xlink="http://www.w3.org/1999/xlink" width="16" height="19" viewBox="0 0 16 19">
  <defs>
    <clipPath id="clip-path">
      <rect id="Rectangle_9" data-name="Rectangle 9" width="16" height="19" transform="translate(-0.074 -0.344)" fill="#fff" stroke="#707070" stroke-width="1"/>
    </clipPath>
  </defs>
  <g id="Mask_Group_2" data-name="Mask Group 2" transform="translate(0.074 0.344)" clip-path="url(#clip-path)">
    <g id="download" transform="translate(0 0.54)">
      <path id="Path_10" data-name="Path 10" d="M.384,48.8A.391.391,0,0,0,0,49.2v4.033a.39.39,0,0,0,.391.388H15.885a.391.391,0,0,0,.391-.391V49.195a.393.393,0,0,0-.671-.28.379.379,0,0,0-.112.28v3.642H.779V49.195a.4.4,0,0,0-.115-.283.369.369,0,0,0-.28-.112Z" transform="translate(0 -36.389)" fill="#f6f6f6"/>
      <path id="Path_11" data-name="Path 11" d="M19.1,0a.394.394,0,0,0-.388.4V14.875l-3.334-3.3a.386.386,0,0,0-.28-.119.4.4,0,0,0-.28.115.382.382,0,0,0-.112.283.376.376,0,0,0,.122.276l4,3.956h0a.4.4,0,0,0,.552,0l4-3.956h0a.4.4,0,0,0,.122-.276.408.408,0,0,0-.112-.283.4.4,0,0,0-.28-.115.386.386,0,0,0-.28.119l-3.338,3.3V.4a.391.391,0,0,0-.115-.283A.383.383,0,0,0,19.1,0Z" transform="translate(-10.964)" fill="#f6f6f6"/>
    </g>
  </g>
</svg>
