<?xml version="1.0" encoding="utf-8"?>
<!-- Generator: Adobe Illustrator 25.2.0, SVG Export Plug-In . SVG Version: 6.00 Build 0)  -->
<svg version="1.1" id="Layer_1" xmlns="http://www.w3.org/2000/svg" xmlns:xlink="http://www.w3.org/1999/xlink" x="0px" y="0px"
	 viewBox="0 0 568.1 560" style="enable-background:new 0 0 568.1 560;" xml:space="preserve">
<path d="M425,560H104.2c-27.6,0-54.2-11-73.7-30.5C11,509.9,0,483.4,0,455.8V141.9c0-27.6,11-54.2,30.5-73.7
	c19.6-19.6,46.1-30.5,73.7-30.5h207c1.8,0,3.6,0.7,4.9,2c1.3,1.3,2,3,2,4.9c0,1.8-0.7,3.6-2,4.9c-1.3,1.3-3.1,2-4.9,2h-207
	c-24,0-47,9.5-63.9,26.5c-17,17-26.5,40-26.5,63.9v313.9c0,24,9.5,47,26.5,64c17,17,40,26.5,63.9,26.5H425c24,0,47-9.5,63.9-26.5
	c17-17,26.5-40,26.5-63.9V251.1c0-3.8,3.1-6.9,6.9-6.9c1.8,0,3.6,0.7,4.9,2c1.3,1.3,2,3.1,2,4.9v204.7c0,27.6-11,54.2-30.5,73.7
	C479.2,549,452.7,560,425,560L425,560z"/>
<path d="M363.9,0c-3.8,0-6.9,3.1-6.9,6.9s3.1,6.9,6.9,6.9h180.6L266.9,291.4c-2.7,2.7-2.7,7.1,0,9.8c2.7,2.7,7.1,2.7,9.8,0
	L554.3,23.6v176.1c0,3.8,3.1,6.9,6.9,6.9s6.9-3.1,6.9-6.9V0L363.9,0z"/>
</svg>
