


<?xml version="1.0" encoding="utf-8"?>
<!-- Generator: Adobe Illustrator 25.2.0, SVG Export Plug-In . SVG Version: 6.00 Build 0)  -->
<svg version="1.1" id="Layer_1" xmlns="http://www.w3.org/2000/svg" xmlns:xlink="http://www.w3.org/1999/xlink" x="0px" y="0px"
	 viewBox="0 0 551.2 551.3" style="enable-background:new 0 0 551.2 551.3;" xml:space="preserve">
<path  class="svg-404-topbar" d="M494.4,0H56.9C25.4,0,0,25.4,0,56.9v61.2c0,7.4,5.7,13.1,13.1,13.1h525c7.4,0,13.1-5.7,13.1-13.1V56.9
	C551.2,25.4,525.9,0,494.4,0z M91.9,78.8H74.4c-7.4,0-13.1-5.7-13.1-13.1s5.7-13.1,13.1-13.1h17.5c7.4,0,13.1,5.7,13.1,13.1
	S99.3,78.8,91.9,78.8z M161.9,78.8h-17.5c-7.4,0-13.1-5.7-13.1-13.1s5.7-13.1,13.1-13.1h17.5c7.4,0,13.1,5.7,13.1,13.1
	S169.3,78.8,161.9,78.8z M476.9,78.8H328.1c-7.4,0-13.1-5.7-13.1-13.1s5.7-13.1,13.1-13.1h148.8c7.4,0,13.1,5.7,13.1,13.1
	S484.3,78.8,476.9,78.8z"/>
<path class="svg-404-area"  d="M371.9,382.8h35v-66.1l-35,65.2V382.8z"/>
<path class="svg-404-area" d="M275.6,277.8c-12.2,0-21.9,9.6-21.9,21.9v91.9c0,12.2,9.6,21.9,21.9,21.9s21.9-9.6,21.9-21.9v-91.9
	C297.5,287.4,287.9,277.8,275.6,277.8z"/>
<path class="svg-404-area" d="M131.2,382.8h35v-66.1l-35,65.2V382.8z"/>
<path class="svg-404-browserarea" d="M538.1,157.5h-525c-7.4,0-13.1,5.7-13.1,13.1v323.8c0,31.5,25.4,56.9,56.9,56.9h437.5c31.5,0,56.9-25.4,56.9-56.9V170.6
	C551.2,163.2,545.6,157.5,538.1,157.5z M192.5,409.1v17.5c0,7.4-5.7,13.1-13.1,13.1s-13.1-5.7-13.1-13.1v-17.5h-48.1
	c-7.4,0-13.1-5.7-13.1-13.1v-17.5c0-2.2,0.4-4.4,1.8-6.1L168,258.6c3.1-5.2,8.8-7.9,14.9-6.6s10.1,6.6,10.1,12.7v118.1
	c7.4,0,13.1,5.7,13.1,13.1S199.9,409.1,192.5,409.1L192.5,409.1z M323.8,391.6c0,26.7-21.4,48.1-48.1,48.1s-48.1-21.4-48.1-48.1
	v-91.9c0-26.7,21.4-48.1,48.1-48.1s48.1,21.4,48.1,48.1V391.6z M433.1,409.1v17.5c0,7.4-5.7,13.1-13.1,13.1s-13.1-5.7-13.1-13.1
	v-17.5h-48.1c-7.4,0-13.1-5.7-13.1-13.1v-17.5c0-2.2,0.4-4.4,1.8-6.1l61.2-113.8c3.1-5.2,8.8-7.9,14.9-6.6
	c5.7,1.3,10.1,6.6,10.1,12.7v118.1c7.4,0,13.1,5.7,13.1,13.1S440.6,409.1,433.1,409.1L433.1,409.1z"/>
</svg>
