<?xml version="1.0" encoding="utf-8"?>
<!-- Generator: Adobe Illustrator 25.2.0, SVG Export Plug-In . SVG Version: 6.00 Build 0)  -->
<svg version="1.1" id="Layer_1" xmlns="http://www.w3.org/2000/svg" xmlns:xlink="http://www.w3.org/1999/xlink" x="0px" y="0px"
	 viewBox="0 0 468.5 384.6" style="enable-background:new 0 0 468.5 384.6;" xml:space="preserve">
<path d="M462,0L5.2,50.5c-2.2,0.2-4.1,1.8-4.9,3.9c-0.7,2.1-0.2,4.4,1.3,6.1l133.5,136.6l53.4,183.3c0.6,2.1,2.4,3.7,4.7,4.1
	c0.4,0,0.7,0.1,0.9,0.1c1.9,0,3.6-0.9,4.8-2.4L467.3,9.2c1.4-1.9,1.5-4.3,0.4-6.3C466.5,1,464.3-0.2,462,0L462,0z M196.2,365.7
	l-49.2-169l55.3-34.4c2.7-1.8,3.6-5.2,1.9-8.1s-5.2-3.6-8.1-1.9L141,186.6L18.4,60.8l431.9-47.7L196.2,365.7z"/>
</svg>
